<svg width="25" height="25" viewBox="0 0 25 25" fill="none" xmlns="http://www.w3.org/2000/svg">
<path d="M13.7499 18.27C13.3599 18.27 13.0799 18.21 12.9199 18.08C12.7599 17.95 12.6799 17.71 12.6799 17.35C12.6799 17.21 12.6999 17 12.7499 16.72C12.7999 16.45 12.8499 16.2 12.9199 15.98L13.6799 13.3C13.7499 13.05 13.8099 12.78 13.8299 12.49C13.8599 12.2 13.8699 11.99 13.8699 11.87C13.8699 11.31 13.6699 10.85 13.2799 10.49C12.8799 10.14 12.3199 9.95996 11.5899 9.95996C11.1799 9.95996 10.7599 10.03 10.2999 10.18C9.84992 10.32 9.36992 10.5 8.86992 10.7L8.66992 11.53C8.81992 11.47 8.98992 11.42 9.19992 11.35C9.40992 11.29 9.60992 11.26 9.79992 11.26C10.1999 11.26 10.4699 11.33 10.6099 11.46C10.7499 11.59 10.8199 11.84 10.8199 12.18C10.8199 12.37 10.7999 12.58 10.7499 12.81C10.6999 13.04 10.6499 13.28 10.5799 13.54L9.81992 16.23C9.74992 16.52 9.70992 16.77 9.66992 17C9.63992 17.22 9.61992 17.44 9.61992 17.66C9.61992 18.21 9.81992 18.67 10.2299 19.03C10.6399 19.39 11.2099 19.57 11.9499 19.57C12.4299 19.57 12.8499 19.51 13.2099 19.38C13.5699 19.25 14.0599 19.07 14.6699 18.83L14.8699 18C14.7599 18.05 14.5999 18.11 14.3599 18.17C14.1399 18.23 13.9299 18.27 13.7499 18.27Z" fill="#000000"/>
<path d="M13.27 5.06006C12.77 5.06006 12.35 5.23006 11.99 5.56006C11.64 5.89006 11.46 6.29006 11.46 6.76006C11.46 7.23006 11.64 7.62006 11.99 7.95006C12.35 8.28006 12.77 8.44006 13.27 8.44006C13.77 8.44006 14.19 8.28006 14.55 7.95006C14.9 7.62006 15.08 7.22006 15.08 6.76006C15.08 6.29006 14.9 5.90006 14.55 5.56006C14.19 5.23006 13.76 5.06006 13.27 5.06006Z" fill="#000000"/>
<path d="M12.31 24.63C5.52 24.63 0 19.1 0 12.31C0 5.52 5.52 0 12.31 0C19.1 0 24.62 5.52 24.62 12.31C24.62 19.1 19.1 24.63 12.31 24.63ZM12.31 1C6.08 1 1 6.08 1 12.31C1 18.54 6.08 23.62 12.31 23.62C18.54 23.62 23.62 18.54 23.62 12.31C23.62 6.08 18.55 1 12.31 1Z" fill="#000000"/>
</svg>
