<svg width="462" height="424" viewBox="0 0 462 424" fill="none" xmlns="http://www.w3.org/2000/svg">
<path d="M409.305 110.812C412.586 103.972 416.961 97.4049 422.429 91.3855C416.414 83.7245 409.852 76.337 402.743 69.2232C396.728 63.2038 390.713 57.7316 384.151 52.533C362.824 73.0537 331.928 77.4314 306.5 65.6662C305.407 65.119 304.313 64.5718 303.219 64.2982C297.204 61.0149 291.736 57.1843 286.814 52.2594C273.143 38.5789 266.308 20.5207 266.581 2.46248C264.941 2.18887 263.027 2.18887 261.113 1.91527C261.113 1.91527 261.113 1.91527 261.113 1.64166C258.105 1.36805 255.098 1.09444 252.09 0.820828C251.543 0.820828 251.27 0.820828 250.723 0.820828C245.802 0.273609 241.154 0 236.232 0C236.232 0 236.232 0 235.959 0C235.959 0 235.959 0 235.685 0C230.764 0 226.116 0.273609 221.194 0.547219C220.921 0.547219 220.647 0.547219 220.374 0.547219C216.546 0.820828 212.718 1.09444 208.89 1.36805C208.07 1.36805 207.25 1.36805 206.43 1.64166C205.609 39.3997 174.987 69.7704 137.255 69.7704C118.936 69.7704 102.258 62.6565 89.6807 50.8913C89.6807 50.8913 89.6807 50.8913 89.4073 50.8913C89.4073 50.8913 89.4073 50.8913 89.1339 50.6177C82.025 56.3635 75.1896 62.3829 68.6276 68.9496C62.0656 75.5162 55.777 82.3564 50.3087 89.4703C49.7619 90.0175 49.4884 90.5647 48.9416 91.3855C60.6985 103.698 68.0808 120.662 68.0808 138.994C68.0808 176.478 38.5518 206.849 1.6405 208.217C0.546834 217.793 0 227.096 0 236.398C0 245.701 0.546834 255.004 1.6405 264.033C38.5518 265.675 68.0808 296.045 68.0808 333.256C68.0808 351.588 60.972 368.278 49.215 380.864C50.3087 382.232 51.4024 383.327 52.2226 384.695L51.9492 384.968C57.1441 391.261 62.6125 397.554 68.6276 403.574C75.7365 410.688 83.1187 417.254 91.0478 423.274C112.648 402.479 144.637 398.649 170.339 411.508C172.526 412.603 174.44 413.971 176.354 415.339V352.956C164.05 346.663 153.113 338.455 143.544 328.878C119.757 305.074 105.265 272.241 105.265 236.125C105.265 200.008 120.03 167.175 143.544 143.371C167.331 119.567 199.868 105.066 235.959 105.066C237.326 105.066 238.693 105.066 240.06 105.34C243.068 105.34 246.075 105.613 248.809 105.887C252.09 106.16 255.371 106.708 258.379 107.255C259.199 107.528 260.293 107.528 261.113 107.802C265.488 108.623 269.589 109.717 273.964 111.085C293.923 117.105 312.515 128.049 328.374 143.645C339.584 154.863 348.333 167.723 354.622 181.129H416.961C401.649 160.609 398.915 133.521 409.305 110.812Z" fill="white"/>
<path d="M348.88 250.898H460.981V229.283H333.568L348.88 250.898Z" fill="#FFCC33"/>
<path d="M305.405 214.783H214.904V417.801H461.253V265.401H341.496L305.405 214.783Z" fill="#FFCC33"/>
</svg>
